<?xml version="1.0" standalone="no"?>
<!DOCTYPE svg PUBLIC "-//W3C//DTD SVG 20010904//EN"
 "http://www.w3.org/TR/2001/REC-SVG-20010904/DTD/svg10.dtd">
<svg version="1.0" xmlns="http://www.w3.org/2000/svg"
 width="360.000000pt" height="360.000000pt" viewBox="0 0 360.000000 360.000000"
 preserveAspectRatio="xMidYMid meet">

<g transform="translate(0.000000,360.000000) scale(0.100000,-0.100000)"
fill="#ffffff" stroke="none">
<path d="M2426 3247 c-15 -11 -19 -34 -24 -145 l-5 -131 -596 -3 c-586 -4
-597 -4 -681 -27 -359 -98 -614 -359 -696 -716 -24 -103 -25 -313 -2 -400 49
-184 150 -348 276 -451 l54 -44 278 0 c203 0 281 3 286 12 5 7 -68 85 -193
207 -210 206 -237 241 -262 352 -44 190 49 402 221 503 111 65 34 60 1118 66
l985 5 0 27 c0 23 -50 80 -275 310 -293 302 -443 448 -457 448 -5 0 -17 -6
-27 -13z"/>
<path d="M2280 2235 c0 -8 78 -93 174 -189 96 -95 189 -195 206 -222 156 -247
41 -579 -240 -691 -42 -17 -115 -18 -1020 -23 l-975 -5 -3 -22 c-2 -16 76
-101 352 -378 316 -317 358 -356 383 -353 l28 3 5 130 5 130 595 6 c565 5 599
7 671 27 234 64 435 202 556 382 100 148 153 310 160 491 7 152 -10 250 -65
378 -49 113 -101 190 -187 279 l-71 72 -287 0 c-249 0 -287 -2 -287 -15z"/>
<path d="M1480 2061 c-86 -27 -161 -104 -186 -189 -41 -140 33 -290 166 -337
34 -12 100 -15 324 -15 160 0 297 4 318 10 189 53 257 300 126 455 -14 17 -48
42 -74 55 -49 25 -51 25 -349 27 -165 1 -311 -2 -325 -6z m621 -154 c70 -47
77 -151 14 -214 l-33 -33 -291 0 -290 0 -36 31 c-42 37 -59 90 -45 139 11 37
44 78 75 90 11 5 144 9 296 9 271 1 277 1 310 -22z"/>
</g>
</svg>
